{"title":"Metropia.2009.1080p-iMSORNY-Reupload","uid":8066774,"size":4698273275,"categoryP":"video","categoryS":"hd___movies","magnet":"?xt=urn:btih:e41627d5c6d69be2c5daccaf0ae9e56918935f62&amp;dn=Metropia.2009.1080p-iMSORNY-Reupload&amp;tr=udp%3A%2F%2Ftracker.openbittorrent.com%3A80&amp;tr=udp%3A%2F%2Fopen.demonii.com%3A1337&amp;tr=udp%3A%2F%2Ftracker.coppersurfer.tk%3A6969&amp;tr=udp%3A%2F%2Fexodus.desync.com%3A6969","seeders":2,"leechers":0,"uploader":"imravi1","files":22,"time":1359195919,"description":" &lt;a href=&quot;http://www.imdb.com/title/tt0985058&quot; rel=&quot;nofollow&quot; target=&quot;_NEW&quot;&gt;http://www.imdb.com/title/tt0985058&lt;/a&gt;\n\nIMDB Rating 6.1\n\n\nAnother re upload of a old dead torrent. All credits to original up loader only.\n\nPlease reseed after download. \n\nMy upload speed is only 512 kbps (adsl) so please keep patience.\nI will seed the torrent 24x7 for some weeks. \n\nSubtitles are in English but not exactly fits.\n\n\n\nMetropia.2009.1080p.BluRay.x264-iMSORNY.mkv\nFormat                                   : Matroska\nFormat version                           : Version 2\nFile size                                : 4.37 GiB\nDuration                                 : 1h 25mn\nOverall bit rate                         : 7 307 Kbps\nEncoded date                             : UTC 2010-05-25 23:29:01\nWriting application                      : mkvmerge v2.9.7 ('Tenderness') built on Jul  1 2009 18:43:35\nWriting library                          : libebml v0.7.7 + libmatroska v0.8.1\n\nVideo\nID                                       : 1\nFormat                                   : AVC\nFormat/Info                              : Advanced Video Codec\nFormat profile                           : &lt;a class=&quot;__cf_email__&quot; href=&quot;/cdn-cgi/l/email-protection&quot; data-cfemail=&quot;d890b1bfb09894ecf6e9&quot;&gt;[email&amp;#160;protected]&lt;/a&gt;&lt;script cf-hash='f9e31' type=&quot;text/javascript&quot;&gt;\n/* &lt;![CDATA[ */!function(){try{var t=&quot;currentScript&quot;in document?document.currentScript:function(){for(var t=document.getElementsByTagName(&quot;script&quot;),e=t.length;e--;)if(t[e].getAttribute(&quot;cf-hash&quot;))return t[e]}();if(t&amp;&amp;t.previousSibling){var e,r,n,i,c=t.previousSibling,a=c.getAttribute(&quot;data-cfemail&quot;);if(a){for(e=&quot;&quot;,r=parseInt(a.substr(0,2),16),n=2;a.length-n;n+=2)i=parseInt(a.substr(n,2),16)^r,e+=String.fromCharCode(i);e=document.createTextNode(e),c.parentNode.replaceChild(e,c)}}}catch(u){}}();/* ]]&gt; */&lt;/script&gt;\nFormat settings, CABAC                   : Yes\nFormat settings, ReFrames                : 4 frames\nCodec ID                                 : V_MPEG4/ISO/AVC\nDuration                                 : 1h 25mn\nBit rate                                 : 5 794 Kbps\nWidth                                    : 1 920 pixels\nHeight                                   : 1 040 pixels\nDisplay aspect ratio                     : 16:9\nFrame rate                               : 24.000 fps\nColor space                              : YUV\nChroma subsampling                       : 4:2:0\nBit depth                                : 8 bits\nScan type                                : Progressive\nBits/(Pixel*Frame)                       : 0.121\nStream size                              : 3.38 GiB (77%)\nWriting library                          : x264 core 96 r1602 69588a7\n\n\nAudio\nID                                       : 2\nFormat                                   : DTS\nFormat/Info                              : Digital Theater Systems\nCodec ID                                 : A_DTS\nDuration                                 : 1h 25mn\nBit rate mode                            : Constant\nBit rate                                 : 1 510 Kbps\nChannel(s)                               : 6 channels\nChannel positions                        : Front: L C R, Side: L R, LFE\nSampling rate                            : 48.0 KHz\nBit depth                                : 24 bits\nCompression mode                         : Lossy\nStream size                              : 926 MiB (21%)\nTitle                                    : English\nLanguage                                 : English\nDefault                                  : Yes\nForced                                   : No","torrent":{"xt":"urn:btih:e41627d5c6d69be2c5daccaf0ae9e56918935f62","amp;dn":"Metropia.2009.1080p-iMSORNY-Reupload","amp;tr":["udp%3A%2F%2Ftracker.openbittorrent.com%3A80","udp%3A%2F%2Fopen.demonii.com%3A1337","udp%3A%2F%2Ftracker.coppersurfer.tk%3A6969","udp%3A%2F%2Fexodus.desync.com%3A6969"],"infoHash":"e41627d5c6d69be2c5daccaf0ae9e56918935f62","infoHashBuffer":{"type":"Buffer","data":[228,22,39,213,198,214,155,226,197,218,204,175,10,233,229,105,24,147,95,98]},"announce":[],"urlList":[]}}